TITLE ""
FILE "Step1_Track50.mp3" MP3
  TRACK 01 AUDIO
    TITLE "Step1_Track50_01"
    INDEX 01 00:00:00
  TRACK 02 AUDIO
    TITLE "Step1_Track50_02"
    INDEX 01 00:00:24
  TRACK 03 AUDIO
    TITLE "Step1_Track50_03"
    INDEX 01 00:01:61
  TRACK 04 AUDIO
    TITLE "Step1_Track50_04"
    INDEX 01 00:02:39
  TRACK 05 AUDIO
    TITLE "Step1_Track50_05"
    INDEX 01 00:03:38
  TRACK 06 AUDIO
    TITLE "Step1_Track50_06"
    INDEX 01 00:03:69
  TRACK 07 AUDIO
    TITLE "Step1_Track50_07"
    INDEX 01 00:06:13
  TRACK 08 AUDIO
    TITLE "Step1_Track50_08"
    INDEX 01 00:06:31
  TRACK 09 AUDIO
    TITLE "Step1_Track50_09"
    INDEX 01 00:07:24
  TRACK 10 AUDIO
    TITLE "Step1_Track50_10"
    INDEX 01 00:07:40
  TRACK 11 AUDIO
    TITLE "Step1_Track50_11"
    INDEX 01 00:09:66
  TRACK 12 AUDIO
    TITLE "Step1_Track50_12"
    INDEX 01 00:10:11
  TRACK 13 AUDIO
    TITLE "Step1_Track50_13"
    INDEX 01 00:11:10
  TRACK 14 AUDIO
    TITLE "Step1_Track50_14"
    INDEX 01 00:11:20
  TRACK 15 AUDIO
    TITLE "Step1_Track50_15"
    INDEX 01 00:13:13
  TRACK 16 AUDIO
    TITLE "Step1_Track50_16"
    INDEX 01 00:13:36
  TRACK 17 AUDIO
    TITLE "Step1_Track50_17"
    INDEX 01 00:14:38
  TRACK 18 AUDIO
    TITLE "Step1_Track50_18"
    INDEX 01 00:14:65
  TRACK 19 AUDIO
    TITLE "Step1_Track50_19"
    INDEX 01 00:16:39
  TRACK 20 AUDIO
    TITLE "Step1_Track50_20"
    INDEX 01 00:16:72
  TRACK 21 AUDIO
    TITLE "Step1_Track50_21"
    INDEX 01 00:17:70
  TRACK 22 AUDIO
    TITLE "Step1_Track50_22"
    INDEX 01 00:18:10
  TRACK 23 AUDIO
    TITLE "Step1_Track50_23"
    INDEX 01 00:19:68
  TRACK 24 AUDIO
    TITLE "Step1_Track50_24"
    INDEX 01 00:20:05
  TRACK 25 AUDIO
    TITLE "Step1_Track50_25"
    INDEX 01 00:21:09
  TRACK 26 AUDIO
    TITLE "Step1_Track50_26"
    INDEX 01 00:21:26
  TRACK 27 AUDIO
    TITLE "Step1_Track50_27"
    INDEX 01 00:23:60
  TRACK 28 AUDIO
    TITLE "Step1_Track50_28"
    INDEX 01 00:23:74
  TRACK 29 AUDIO
    TITLE "Step1_Track50_29"
    INDEX 01 00:25:04
  TRACK 30 AUDIO
    TITLE "Step1_Track50_30"
    INDEX 01 00:25:08
  TRACK 31 AUDIO
    TITLE "Step1_Track50_31"
    INDEX 01 00:27:48
  TRACK 32 AUDIO
    TITLE "Step1_Track50_32"
    INDEX 01 00:27:60
  TRACK 33 AUDIO
    TITLE "Step1_Track50_33"
    INDEX 01 00:28:54
  TRACK 34 AUDIO
    TITLE "Step1_Track50_34"
    INDEX 01 00:28:65
  TRACK 35 AUDIO
    TITLE "Step1_Track50_35"
    INDEX 01 00:31:21
  TRACK 36 AUDIO
    TITLE "Step1_Track50_36"
    INDEX 01 00:31:32
  TRACK 37 AUDIO
    TITLE "Step1_Track50_37"
    INDEX 01 00:32:38
  TRACK 38 AUDIO
    TITLE "Step1_Track50_38"
    INDEX 01 00:32:49
  TRACK 39 AUDIO
    TITLE "Step1_Track50_39"
    INDEX 01 00:34:64
  TRACK 40 AUDIO
    TITLE "Step1_Track50_40"
    INDEX 01 00:35:01
  TRACK 41 AUDIO
    TITLE "Step1_Track50_41"
    INDEX 01 00:35:71
  TRACK 42 AUDIO
    TITLE "Step1_Track50_42"
    INDEX 01 00:36:14
  TRACK 43 AUDIO
    TITLE "Step1_Track50_43"
    INDEX 01 00:38:44
